<svg xmlns="http://www.w3.org/2000/svg" width="1023.999" height="768" viewBox="0 0 27093.32 20320" shape-rendering="geometricPrecision" text-rendering="geometricPrecision" image-rendering="optimizeQuality" fill-rule="evenodd" clip-rule="evenodd"><defs><style>.fil0{fill:#fff}.fil0,.fil4,.fil5,.fil6{fill-rule:nonzero}.fil5{fill:#b1acac}.fil6{fill:#857d7c}.fil4{fill:#353130}.fil3,.fil7,.fil9{fill-rule:nonzero}.fil9{fill:#35312f}.fil3{fill:#1a75cf}.fil7{fill:#d42e12}</style></defs><g id="Слой_x0020_1"><path class="fil0" d="M14661.82 7072.14c-16.41 11-32.74 22.01-49.15 33.02-27.55 18.52-55.1 37-82.65 55.52-19.3 12.98-38.59 25.97-58.49 37.96-17.61 10.58-35.67 20.43-54.15 29.42-10.34 5.08-30.98 20.29-42.37 11.12-4.52-3.64-7.02-9.18-9.35-14.5-21.8-49.5-43.67-98.99-65.48-148.49-11.46-25.96-23-52.21-28.85-79.97-2.44-11.4-3.74-23.82 1.44-34.22 16.3-32.7 146.23 11.82 175.83 18.41a2733.692 2733.692 0 01201.08 52.88c12.38 3.78 27.69 12.35 24.63 24.98-1.52 6.17-7.2 10.3-12.49 13.87zm-3446.32 3673.44v-.5l.17.53-.17-.03zm4453.11 490.07c170.21-125.97 340.39-251.88 510.57-377.82 110.49-81.77 200.07-13.05 321.74-5.5 91.19 5.64 190.07-22.34 245.28-95.15 30.03-39.58 45.23-89.53 78.85-126.12 38.81-42.15 96.17-60.67 150.32-79.44 462.42-160.06 875.88-458.61 1173.34-847.16-82.73-105.62-151.8-221.86-205.04-344.98-142.84 88.97-296.19 161-455.86 214.13 106.65-136.88 213.36-273.79 320.01-410.67 9.42-12.1 19.4-25.78 18.2-41.1-1.09-14.35-11.71-25.92-21.69-36.3-85.91-88.83-171.84-177.62-257.74-266.45-143.8 77.22-276.37 175.4-392.22 290.44 40.96-140.01 91.37-277.25 150.81-410.45-50.09-34.86-85.51-85.24-124.85-130.18-43.81-50.09-96.91-93.84-145.76-139.35-5.72-5.32-12.28-11-20.08-10.83-2.64.04-3.53-3.84-4.16-7.72-.74-4.52-1.2-9.03-3.74-7.34-269.45 179.32-514.31 412.43-674.26 693.77-61.42-58.35-90.14-100.19-159.25-153.24-207.11-159.04-403.4-71.44-555.45 108.62-18.73 22.19-38.7 48.4-34.11 77.11 4.52 28.19 30.8 46.75 53.8 63.79 83.15 61.59 151.3 148.06 174.69 248.84 23.43 100.83-3.7 215.9-81.45 284.24-41.03 36.09-93.7 58.17-130.53 98.56-85.83 94.05-54.19 240.78-30.48 365.91 1.94 10.51 3.77 21.83-.67 31.57-3.63 8.01-10.97 13.65-18.13 18.8-75.04 54.4-170.22 110-262.43 125.38-40.89-82.09-41.32-193.68-70.91-282.4-31.08-93.34-61.14-187.11-90.03-281.16-56.13-182.46-108.3-366.19-155.82-551.08-20.25-78.7-41.21-157.27-62.73-235.69-21.06-76.48-48.22-151.69-66.92-228.49 119.91-42.79 222.21-129.47 325.44-199.11 55.63-37.47 113.91-78.53 136.28-140.48 16.12-43.92 11.95-93.2 7.69-140.83-25.76-290.4-66.4-560.14-142.67-846.91-46.74-176.42-54.36-342.93-124.07-514.35-30.62-101.18-120.97-130.7-212.97-170.57-106.19-46.11-214.35-87.27-323.89-123.43-80.89-26.67-162.45-50.63-244.58-71.79-22.01-5.75-187.18-31.79-194.31-51.02-30.34-81.91-60.64-163.47-90.94-245.35-9.7-.36-143.9-333.52-158.61-365.34-65.87-141.85-80.4-151.45-149.76-291.92-158.64 12.94-279.04 25.22-438.08 35.63-81.66 5.32-163.26 17.57-245.04 21.98-46.24 2.5-119.9 11.11-170.32 12.62-49.21-120.54-216.14-406.78-290.83-515.79-18.98-27.73-111.54-53.91-131.79-47.91-207.93 61.77-362.2 69.22-573.66 102.02-161.89-267.97-414.12-746.12-545.04-1030.39-44.66-96.98-87.2-194.84-129.75-292.73-145.41-334.54-274.11-673.88-416.67-1009.44-40.64-95.6-81.35-191.53-109.53-291.5-36.83-130.78-51.83-267.27-94.69-396.21-34.29-103.15-85.9-199.7-127.28-300.28-44.1-107.25-76.48-218.79-108.8-330.1l-185.52-639.12c-7.83-26.88-18.7-57.33-44.95-67.42-17.04-6.56-36.16-2.47-53.87 2.12-99.37 25.82 63.33-17.25 96.31-38.49 0-9.42-14.14-42.4-25.93-80.12-110.77 35.35-483.09 164.96-511.35 176.75-69.43 28.92-65.33 66.04-40.57 149.29 496.43 1668.53 1169.99 3582.71 1586.76 4304.77 8.26 14.25-78.49 68.65-96.2 82.34-85.55 66.29-169.76 134.37-249.7 206.59 15.03 62.69 12.46 50.97 33.62 113.13 23 68.02 47.52 111.16 69.61 179.32 12.77 39.3 126.57 319.93 111.47 334.36-186.72 177.73-354.64 372.54-547.12 545.15 66.92 186.02 134.9 371.86 192.83 560.14 25.26 82.13 49.35 163.3 78.7 244.4 11.82 32.71 59.83 229.06 86.61 239.08-17.99-6.74-37.61-9.8-56.16-13.72-127.81-26.67-257.42-45.97-386.26-60.11-60.25-6.64-129.15-19.12-187.92-8.82-78.5 13.68-117.69 49.77-160.45 110.52-70.09 99.73-155.29 324.24-175.26 433.28-3.14 17.15 11.05 32.42 28.51 32.28 183.37-1.34 274.49 2.26 482.81 22.44 200.98 19.44 448.87 57.57 697.76 146.12 39.4 100.58 86.39 197.94 122.66 299.83 42.26 118.74 71.47 242.78 107.53 363.64 1.69 5.64 3.35 11.82 1.16 17.25-2.4 5.96-8.57 9.28-14.29 12.14-81.52 40.95-159.81 81.7-225.88 146.93-46.11 45.47-83.19 102.62-93.45 166.54-7.9 49.08.25 99.24 10.97 147.78 21.2 95.89 27.41 121.11 69.74 222.75-99.66 56.48-190 109.36-258.3 224.43-80.47 135.51-68.16 289.46-55.07 381.11 29.67 207.5 5.43 243.42 1.2 416.21-3.14 127.63-6.21 255.73 7.44 382.65 11.93 110.64 43.93 212.45 70.42 319.62 23.81 96.31 44.94 181.44 89.53 273.23 95.89 197.41 225.22 376.41 359.94 548.81 8.68 11.12 22.12 21.28 23.04 35.32 3.17 48.29 1.06 94.58-2.22 136.42-7.31 93.94-13.83 130.31-21.59 195.08-16.62 139.07-33.23 278.17-49.89 417.23 161.58 74.47 335.18 104.11 462.21 129.54 10.16 202.14-1.55 312.32-20.99 516.89-11.25 118.43-24.44 236.61-40.53 354.44-14.43 105.94-53.23 224.33-53.23 330.55-11.01 56.48-349.08 56.38-400.48 58.49-17.35 75.04-49.39 215.8-63.15 272.06-39.54 161.58-85.79 342.76-130.63 583.78 58.49 26.78 266.81 117.93 283.95 124.64 118.18 45.96 238.69 84.81 360.61 116.24 40.04 10.3 569.17 124.18 570.62 117.93-34.68 148.31-53.94 252.41-96.2 423.19-36.48 148.03-78.85 292.39-128.38 411.1l.11-7.27c-37.72-3.39-75.29-5.68-112.79-7.06-179.81-6.35-355.63 10.34-528.1 35.67-15.56 2.29-37.36-20.22-51.97-26.74-21.48-9.56-45.75-14.64-68.68-16.83-44.28-4.2-88.94 3.78-126.12 23.92-41.98 22.72-32.18 64.49-81.11 81.03-39.37 13.3-83.32 12.1-124.07 20.75-116.45-35.04-237.21-46.29-315.17 50.62-8.68 10.79-10.48 28.19-19.93 36.05-12.74 10.66-44.59 14.36-61.03 20.08-40.85 14-81.21 29.21-120.97 45.47l-7.37-.92c-95.29-3.39-204.51 5.65-267.8 75.43-19.93 21.94-17.74 40.14-24.87 66-6.07 22.12.96 20.11-23.85 37.75-39.05 27.66-76.41 57.64-111.76 89.46-69.6 62.58-131.23 133.35-180.05 212.3-80.08 129.61-111.3 275.13-115.36 422.38-4.23 153.89 12.77 336.17 138.43 445.63 28.82 25.12 62.44 44.03 96.87 60.58 249.84 120.4 539.86 119.48 806.35 63.07 131.05-27.8 265.85-34.71 398.42-62.72 142.98-30.16 283.92-69.78 422.07-117.41 488.1-168.24 924.8-425.38 1348.95-685.66l32.21-19.82.95-37.68c.74-28.57.49-57.22-.74-85.97-3.81-87.03-16.76-174.27-38.56-260.24-21.41-83.79-53.16-175.69-121.74-255.77-49.75-57.11-118.11-102.97-196.32-122.38 96.34-295.8 182.28-629.42 222.07-903.43 145.24 15.63 290.48 27.87 434.83 33.02 248.61 8.79 493.72.85 732.05-20.67-16.79 214.07-98.74 518.83-181.96 722.6-193.5 30.55-359.73 132.96-476.99 274.32-124.64 150.77-197.28 344.13-188.84 544.05 2.61 61.42 8.6 146.02 31.46 203.38 25.55 63.92 108.17 68.4 169.69 69.64 153.25 2.99 306.49 5.96 459.74 8.99 223.59 4.41 448.24 38.31 671.34 61.03 235.9 23.99 471.87 47.56 707.88 70.56 406.08 39.58 811.88 88.02 1217.86 129.89 122.77 12.63 245.57 24.98 368.55 36.09 86.36 7.83 231.77 48.79 314.71 16.79 72.46-27.97 115.85-154.8 138.64-221.72 31.93-93.77 45.12-193.75 40.54-292.59-7.98-170.82-67.28-337.08-156.96-482.64-98.84-160.48-242.6-300.88-414.44-372.5-47.45-19.79-97.08-34.32-148.55-42.58-99.28-15.94-211.74-12.34-284.77-81.45-30.65-29.07-53.26-70.31-93.38-83.51-18.55-6.06-38.63-5.22-57.96-2.68-48.01 6.32-94.68 22.72-136.13 47.84-23.01 13.9-47.81 31.26-74.23 26.21-40.96-7.83-53.55-61.1-86.85-86.25-27.73-20.96-65.76-19.58-100.44-17.25-56.02 3.81-114.69 8.43-161.99 38.66-46.11 29.49-86.19 83.93-140.3 75.49-18.28-2.82-34.47-12.91-50.84-21.55-112.32-59.37-261.2-55.07-367.56 16.4-20.74 13.97-62.4 74.55-84.21 78.89-189.09 37.74-374.36 78.03-554.21 107.24 82.06-288.25 162.14-628.9 196.21-902.93 1.49-10.66 221.2-54.61 246.14-61.64 89.96-25.32 182.17-44.76 272.13-70.34 176.46-50.23 349.92-108.73 519.64-175.22 13.87-5.47 28.4-11.47 37.08-23.25 7.62-10.41 9.67-23.99 11.46-37.08 36.73-267.02 72.22-415.99 78-687.74-31.18-1.16-66.81 2.44-102.97 6.03-47.59 4.73-96.13 9.42-136.56 3.35 18.62-146.33 65.09-430.1 87.35-576.4 22.61-148.66 39.37-298.66 50.97-449.44 22.51-293.72 25.08-590.27 12.42-887.2-4.94-115.39-11.71-230.82-19.51-346.29-3.74-55.91-5.57-95.39 9.53-144.32 12.91-42.01 15.91-79.48 12.52-123.61-.21-3.39-.53-6.84-.88-10.3-18.91-198.02-51.08-397.76-69.32-593.73-16.65-179.35 119.62-304.02 251.14-401.32z"/><path d="M16125.92 6993.36c0-470.11 337.92-800.66 808-800.66 470.11 0 807.93 330.55 807.93 800.66 0 470.08-337.82 815.3-807.93 815.3-470.08 0-808-345.22-808-815.3zm1204.63-2901.35c0-264.44-220.38-367.28-440.69-367.28-279.16 0-462.81 132.22-675.75 308.51l-690.46-631.72c359.91-411.31 866.71-690.42 1454.36-690.42 852.03 0 1557.13 367.27 1557.13 1219.3 0 954.87-1145.82 1042.99-1072.34 1850.96h-1101.79c-146.9-954.83 969.54-1219.27 969.54-1689.35z" fill="#2b2b2a" fill-rule="nonzero"/><path class="fil3" d="M16677.87 8854.83c-82.2 116.73-164 239.29-237.14 362.09-16.89 28.33-33.83 57.92-60.39 77.54l-7.34 2.86c-3.21-.36-5.4-3.25-7.09-5.97-48.68-77.57-63.68-175.11-118.64-254.49-72.92-105.23-244.02-332.63-387.31-254.03-60.01 32.91-90.74 101.7-96.88 170.63 63.29 42.55 121.04 72.85 160.06 138.33 79.41 133.45 111.19 311.47 115.29 458.54 3.45 124.21-.5 242.75 25.43 340.85 36.34 142.63 141.61 271.25 265.78 376.49 73.35 62.58 145.88 115.99 240.74 137.79 96.63 22.19 197.73 21.77 295.17 5.12 122.77-20.99 240.17-67.03 351.08-123.62a1923.45 1923.45 0 00189.66-110.7c239.89-158.99 440.86-369.18 634.64-581.9 7.73-8.47 15.56-17.15 19.97-27.73 23.92-57.26-27.87-100.37-79.41-93.74-44.38 5.68-86.92 27.73-125.94 48.37-113.24 59.8-226.48 119.59-339.69 179.39-9.31 4.9-19.09 10.3-24.2 19.47-5.26 9.49-4.41 20.99-3.78 31.82 2.9 49.95-9.66 111.06-57.04 127.14-23.81-54.29-27.23-105.16-41.66-160.05-13.16-49.92-49.36-91.94-87.46-125.1-51.08-44.45-110.66-80.57-151.2-134.83-21.41-28.65-36.69-61.35-51.82-93.8-22.72-48.79-36.69-78.11-78.42-111.38-36.2-28.82-73.84-55.7-112.82-80.46-19.33-12.28-39.37-24.38-54.01-42.48-60.61-75.14 30.27-78 80.26-48.36 31.25 18.55 60.81 40.11 88.12 64.2-23.81-21.06 60.71-171.91 69.64-191.17 42.3-91.05 64.2-191.45 122.38-261.41 21.13-25.4 22.43-70.66 55.45-78.56a2351.439 2351.439 0 01-120.86-82.76c-31.82-23.25-63.04-47.31-93.66-72.11-136.67 124.74-269.21 240.95-376.91 394.02zm-734.69 1147.76c-7.87-20.14-62.27-146.09-49.96-156.7-33.44 23.88-66.85 47.76-100.26 71.61-12.56 8.96-25.82 18.94-29.66 34.01-2.76 10.93-.04 22.82 2.82 34.15 38.63 151.76 105.97 309.17 211.17 432.78 29.95 35.18 62.94 67.53 98.57 96.24 122.2 98.57 277.14 150.46 423.68 195.93 74.12 22.97 150.96 42.76 226.17 36.59 8.75-.74 17.64-1.87 25.01-6.11 11.85-6.77 17.57-20.28 21.73-33.26 5.43-16.83 9.35-34.75 6.46-52.71-6.99-43.04-51.26-74.29-94.55-85.12-45.93-11.47-91.93-7.9-138.04-19.9-52.81-13.76-101.88-40.74-149.97-67.06-15.13-8.33-162.56-71.83-158.43-94.02-81.67-69.71-157.05-147.92-216.22-236.82-31.46-47.27-58.17-97.36-78.52-149.61zm1376.08-965.09c-43.57 41.87-163.16 139.31-146.72 212.19 11.04 48.86 165.2 186.34 204.29 220.31 51.15 44.84 377.44-355.21 407.92-402.8 3.07-4.83 6.21-9.91 6.35-15.77.21-9.28-6.99-17.5-13.73-24.52-66.35-69.25-132.75-138.53-199.1-207.75-108.1 49.81-176.64 139.1-259.01 218.34z"/><path class="fil4" d="M17702.94 10031.55c-110.77 97.79-246.52 180.45-380.65 257.57-120.76 69.39-247.93 137.4-375.11 177.41-127.49 40.21-252.41 52.42-376.38 16.79-105.34-30.34-205.42-97.26-297.04-178.12-117.36-102.97-215.93-226.83-247.26-360.82-22.5-92.11-15.52-202-15.7-317.46-.7-114.62-9.31-240.17-85.83-355.78-52.6-76.48-103.57-142.98-189.02-182.81-8.6-3.99 51.83-141.36 63.29-156.7 72.46-97.37 158.65-48.12 245.78 13.68 68.97 48.9 130.5 115.86 177.34 185.78 97.51 145.8 141.22 325.89 114.94 490.32-3.28 21.45-21.87 54.01-3.1 71.62 17.63 16.44 49.42 14.64 70.3 17.39 19.69 2.57 39.37 6.74 58.74 12.28 61.67 17.56 119.91 49.77 169.65 92.21 52.71 44.91 86.75 94.05 115.08 156l15.45 15.03 12.56-9.81c14.71-26.6 13.86-59.86 8.68-90.84-11.26-68.08-41.24-133.91-85.83-188.14-27.59-33.54-64.03-58.63-102.27-77.68-30.73-15.48-81.57-42.72-115.61-42.65.07-63.67-6.03-127.77-18.38-191.03-3.77-19.51-8.25-39.23-7.87-58.84 1.1-50.27 31.54-99.77 59.31-137.65 81.14-113.6 164.88-222.82 261.86-322.16 83.44-85.41 147.64-157.59 250.12-270.93 3.95-4.34 5.22-11.05 10.55-13.73 9.07-4.62 20.53 1.8 29.56 7.87 32.64 22.05 65.9 43.25 99.59 63.64 29.49 17.85 59.34 35.07 89.61 51.58-44.03 105.87-85.8 213.32-134.34 316.9-35.52 75.77-74.01 153.63-115.53 225.74-19.12-12.56-28.4-31.15-50.17-42.55-23.32-12.17-48.22-18.87-73.73-21.44-31.43-3.14-69.6-.82-82.83 27.09-8.86 19.12-1.7 43.43 11.99 60.92 13.76 17.36 32.81 29.46 51.12 41.67 104.03 69.07 198.23 153.88 278.69 250.12 40.64 48.68 77.83 100.19 110.92 154.05 30.97 50.17 60.53 103.19 84.73 155.97 8.4 18.52 22.72 37.22 42.23 40.14 14.5 2.12 28.61-5.32 37.36-16.54 8.68-11.08 12.67-25.54 14.57-39.97 6.49-51.08-34.54-102.94-25.96-150.14.91-4.94 4.9-8.65 8.75-11.93 64.13-54.82 137.44-80.36 211.87-116.27 23.68-11.43 251.82-134.31 259.4-125.63 62.34 71.58 120.05 146.97 172.55 225.5-115.5 120.51-228.99 242.04-353.98 352.35zm-1021.61 620.29c-20.18 44.35-43.71 87.03-70.38 127.6-6.32 9.67-13.16 19.51-23.28 25.3-15.88 9.06-40.75-.11-58.6-3.64-24.38-4.83-48.58-11.22-72.43-18.8-49.24-15.66-97.08-36.48-143.29-60.33-92.36-47.66-178.83-107.38-260.04-172.47-10.61-8.5-21.13-17.07-31.53-25.79-33.69-28.08-64.88-59.62-92.96-93.45-90.21-108.69-148.63-243.77-165.35-378.56-4.66-37.57-9.21-88.73 12.17-120.69 10.37-15.49 29.28-28.22 43.92-39.72 4.7-3.71 48.55-30.02 48.09-32.53 19.15 111.3 40.6 212.37 102.48 312.42 56.41 91.2 130.84 171.31 211.77 242.68 101.18 89.07 218.62 170.39 358.53 211.74 43.78 12.94 93.45 14.78 138.46 22.11l2.72 1.35-.28 2.78zm657.29-1582.91c64.88-59.76 125.35-110.49 203.8-168.91 19.12 19.33 38.25 38.91 57.15 58.77 50.17 52.71 99.03 107.25 143.87 163.94 2.64 3.21 5.43 6.7 6.03 10.69.78 5.01-1.98 9.52-4.62 13.58-60.75 92.5-135.57 176.42-207.4 259.68-38.66 44.76-80.5 86.71-121.96 128.8-27.27 27.69-53.51 50.23-84.63 72.14-47.48-47.13-87.27-107.49-129.33-159.81-21.23-26.14-43.39-53.59-66.6-80.75 20.21-22.79 31.29-57.64 46.92-84.42 44.38-75.95 91.69-153.81 156.77-213.71zm892.36 597.64c-93.21-127.11-167.36-232.23-263.46-357.36-3.03-3.99-6.49-8.22-11.29-9.35-5.15-1.27-10.05 1.51-14.36 4.16-58.38 36.09-195.82 102.02-260.84 126.4 77.51-68.16 140.19-152.79 205.56-231.95 18.63-22.51 48.69-39.51 49.39-69.5-123.29-133.31-253.36-279.61-376.66-412.89 5.61 6.07-218.09 164.64-242.64 175.89 37.82-85.51 65.55-178.08 100.61-246.27a9881.318 9881.318 0 00-292.48-201.19c-22.97-15.17-45.94-30.27-68.97-45.26-7.55-4.87-16.02-9.98-24.52-8.78-6.6.95-11.71 5.5-16.44 9.91-227.58 211.98-450 435.19-620.78 697.44l-14.18 21.45c-44.63-81.07-101.15-156.25-170.18-219.71-99.14-91.09-204.37-175.3-341.07-170.5-49.95 1.77-96.87 25.08-131.73 57.89-92.95 87.63-126.93 226.98-161.11 349.25-1.02 3.67-1.62 7.76-.11 11.47 1.63 3.81 5.44 6.31 8.96 8.61 97.48 62.75 155.26 94.65 220.84 192.08 48.19 71.62 58.95 161.82 59.27 270.27.18 32.52 5.19 63.6-13.69 84.52-16.9 18.77-42.54 31.47-63.11 46.22a2048.836 2048.836 0 00-144.92 113.94c-8.57 7.34-17.18 14.96-22.3 24.98-6.28 12.28-6.66 26.95-6.66 41.13.24 111.48 23.53 224.93 63.6 332.5-3.32 3.45-6.14 7.33-9.77 10.51-105.16 105.16-275.17 164.82-405.48 231.07 23.63 49.07 43.49 99.98 59.33 152.05 34.29-14.5 445.17-199.36 427.85-227.65 6.39 10.41 12.91 20.74 20.75 30.3 75.42 92.43 164.57 174.7 262.32 245.01 8.5 6.1-505.56 358.31-551.5 383.75-8.29 4.62-17.28 10.02-20.07 19.12-2.5 8.25 1.09 17.04 4.55 24.98 15.91 36.01 31.79 72.03 47.63 108.02 3.98 8.99 8.99 18.98 18.41 21.8 10.76 3.24 21.49-4.41 30.16-11.54a2457.41 2457.41 0 01328.72-227.68c28.65-16.55 302.86-218.76 289.74-225.96 111.86 61.28 230.82 107.99 352.39 134.94 50.38 11.19 112.96 30.41 153.39-5.43 14.99-13.3 25.82-30.45 36.44-47.41 25.79-41.03 51.5-82.06 77.29-123.09 28.37-45.19 58.03-91.72 103.44-120.51 11.57-7.33 28.64-8.04 42.19-11.43 17.81-4.55 35.45-9.52 52.88-15.06 144.07-45.61 278.55-118.46 401.81-189.2 136.07-78.31 279.26-164.71 402.49-273.12 132.11-116.27 317.15-289.49 425.91-428.83 7.09-9.1 14.5-19.72 12.17-31.54-1.27-6.77-5.58-12.74-9.77-18.45z"/><path class="fil5" d="M12974.73 15804.34c-448.56-41.14-883.99-139.7-1326.06-272.21-123.19-36.86-235.76-66.88-363.68-110.06 39.87-138.26 65.65-257.04 105.87-400.76 14.68-52.56 33.23-108.02 47.1-161.15 9.66.32 64.48 2.9 112.92 2.9 41.52 0 78.35-1.91 78.07-8.75 1.24 28.15-9.17 76.69-16.76 102.27-14.67 49.49-23.35 102.8-38.03 152.29-1.48 4.98-2.89 10.55-.28 15.42l7.2 7.12c89.75 66.15 168.94 127.64 268.78 178.69 99.03 50.62 201.58 93.62 306.25 128.87 209.93 70.69 428.37 110.31 645.26 118.11 26.5.95 52.99 1.41 79.41 1.41 232.02 0 460.98-36.87 673.95-112.47 105.41-38.27 167.71-68.75 188.52-83.89 75.96 9.53 203.38 52.28 300.85 74.3 33.98 7.65 68.76 15.06 104.07 22.01-344.31 217.56-754.45 321.52-1173.44 345.9zm-612.25-461.65c-203.87-50.83-401.35-132.15-581.13-242.46l-22.51-15.14-3.81-6.06c-.45-6.11 1.49-19.83 5.47-36.8 37.57-177.45 70.06-356.3 97.72-536.22 33.94-220.49 60.29-442.67 81.67-665.62 20.64-215.44 23.92-192.41 45.61-406.65 158.4 7.2 288.43 14.18 419.56 14.18 68.16 0 136.63-1.87 209.55-6.59-2.22 37-4.62 74.01-7.12 111.16-23.32 343.88-54.05 686.75-109.26 1024.78-41.59 254.78-72.25 516.33-135.75 765.42zm270.19-2288.4c-95.35-16.33-188.8-46.63-275.76-93.16-496.15-265.61-373.14-836.02-409.54-1281.96-47.17-577.57-131.98-1155-251.11-1728.05-101.7-489.09-217.98-978.39-395.89-1452.56 7.84 20.88 216.15 75.42 246.84 87.42 93.14 36.65 151.59 49.17 193.61 144.81 94.96 216.36 190.07 432.61 285.04 649.01 32.56 74.22 69.64 153.77 141.39 197.87 13.55 8.36 27.66 15.03 42.16 20.28 98.67 365.62 185.03 730.11 251.46 1086.7 149.79 804.65 197.7 1572.15 171.8 2369.64zm-830.89-4804.41c-32.74-8.99-68.58-20.49-109.4-32.52-183.66-53.34-367.03-106.54-550.54-159.7-60.26-164.36-120.51-328.58-180.77-492.94-24.66-67.21-49.25-134.41-73.16-201.83 176.53 181.86 428.52 293.37 674.15 293.37 13.66 0 27.31-.35 40.93-1.05 66.25 195.12 132.96 393.7 198.79 594.67z"/><path class="fil6" d="M11711.54 5597.77c-5.79-11.57-24.63-15.42-48.3-15.42-23.11 0-50.76 3.67-75.32 7.31-24.55 3.67-45.96 7.33-56.48 7.33h-.42c-63.96-.7-110.28-45.64-158.08-85.61-23.74-19.87-47.48-39.73-71.23-59.59-129.82-108.58-200.13-300.71-273.79-452.89-81.77-168.95-156.63-341.18-226.9-515.24-138.33-342.61-258.8-692.08-379.56-1041.15-153.74-444.43-305.43-889.71-453.32-1336.46-75.42-228-149.86-456.32-223.06-685.17-41.38-129.36-91.79-251.88-123.82-384.56 69.71-30.34 139.87-60.82 213.53-76.98h.11c12.03 0 163.41 435.54 176.07 470.82 62.2 173.25 120.12 348.23 178.22 523.06 132.75 399.07 250.34 803.84 390 1200.15 135.96 385.73 292.59 762.92 468.84 1129.1 48.4 100.58 97.09 200.73 146.19 300.57 92.15 187.43 185.74 373.95 281.66 560.74 78.07 152.15 159.14 300.99 235.66 453.99z"/><path class="fil7" d="M11231.02 17670.74c-17.08-19.26-33.52-38.98-49.57-55.73-135.18-141.29-314.85-242.68-503.55-275.91-244.27-42.97-420.51 37.78-565.05 215.72-114.26 140.69-116.66 270.23-138.04 443.83-5.71 46.5 27.2 94.02 68.83 120.93 178.82 115.78 473.67 95.82 663.33 80.58 99.83-8.01 202.88-28.86 300.35-47.56 625.93-120.15 1316.5-494.87 1837.34-770.82 140.47-74.4-63.22-260.66-152.68-376.66-30.27-39.26-99.24-76.06-146.62-88.47-47.38-12.42-124.99 108.69-149.43 147.6-10.73 17.11-15.17 37.5-22.65 56.34-32.39 81.88-137.16 130.42-221.69 88.65-58.31-28.89-94.86-91.62-107.1-153.67-8.93-45.08-23.71-202.11 36.05-222.92-80.78 28.12-169.12 26.32-257.84 24.52-68.8-1.41-137.8-2.82-203.66 9.77 52.1 22.3 104.67 44.91 151.69 77.19 107.71 73.9 232.13 255.02 202.21 382.48-15.52 66.11-89.6 117.16-155.61 88.37-11.78 64.14-72.39 108.94-138.21 117.44-65.8 8.47-134.84-14.04-195.27-47.87 11.08 77.33 8.29 161.64-40.21 218.54-83.75 98.18-152.02 35.95-212.62-32.35zm3745.51-368.93c-9.35-4.76-19.4-7.44-30.41-7.09-18.1.53-33.72 10.09-48.93 18.73-43.89 25.01-92.32 45.16-144.57 47.06-52.21 1.91-108.83-16.9-144.18-57.89-31.92-37.04-42.61-86.54-45.54-133.31-4.45-71.94 6.84-143.58 32.88-208.57-85.83 9.67-175.05 28.12-262.15 26.85-60.19-.88-125.98-18.49-166.41 37.61-23.25 32.17-35.8 72.84-66.39 98.24-56.27 46.75-148.66 21.74-213.36-23.7-72.07-50.63-131.55-136.21-114.51-217.14-4.34 20.57-133 80.44-155.47 98.64-51.05 41.24-96.87 88.58-136.67 140.51-86.18 112.5-79.9 198.23-72.28 348.3 1160.46 75.85 2345.62 238.34 3550.57 324.24 22.22 1.55 45.4 3 65.12-5.58 150.99-65.19 3.42-468.45-41.31-572.31-60.08-139.52-157.31-270.54-290.62-347.98-65.62-38.06-137.69-62.05-209.62-83.15-96.24-28.19-195.79-51.86-292.95-43.28-156.74 13.75-279.26 143.79-354.01 268.5-39.79 66.39-62.62 142.16-97.97 211.17-35.34 69-87.48 134.05-162.94 157.34-75.5 23.32-176.5-10.27-207.54-86.33-39.69 41.31-80.68 83.54-134.16 106.44-53.45 22.93-123.02 22.29-170.89-17.11-29.92-24.59-54.05-64.1-85.69-80.19z"/><path class="fil6" d="M11638.48 6842.37c-66.01 0-126.86-9.14-172.23-33.02-34.08-17.92-71.54-56.13-107.53-97.82-41.62-77.05-76.3-157.84-103.4-241.09-1.44-4.38-2.85-8.79-4.23-13.2 1.02-1.13 2.05-2.25 3.07-3.42 5.75-6.31 11.57-12.87 14.5-20.92 7.02-19.4-4.87-40.04-15.28-57.85-21.3-36.48-38.31-75.46-50.51-115.89-3.99 5.89-8.01 11.71-12.07 17.5-25.08-58.46-58.28-113.1-84.03-171.24-31.5-71.09-72.14-139.1-101.99-210.22-50.62-120.58 77.89-223.91 175.86-268.32-26.53 35.73-47.69 77.01-51.36 121.39-3.64 44.34 12.8 92.04 49.07 117.82 6.63 4.73 13.69 8.61 21.09 11.86 17.04 7.41 35.74 11.32 54.3 13.58 25.11 3.07 50.62 4.55 76.44 4.55 358.43.04 773.57-284.62 1008.84-514.74.18-.17.39-.25.67-.25 22.16 0 403.51 540.78 437.69 587.63 12.17 16.68 25.12 33.97 43.68 43.04 8.61 4.23 17.64 6.17 26.67 6.17 38.17 0 76.41-34.26 84.91-73.87 10.55-49.07-11.08-99.17-37.01-142.1a674.127 674.127 0 00-23.49-36.2c8.08-.98 16.12-1.94 24.2-2.89 24.52 22.26 46.36 47.31 61.84 82.37-8.25 1.38-16.47 2.83-24.73 4.27 23.6 25.76 41.1 54.86 52.6 85.38 8.96 39.29 14.22 79.9 14.29 120.12-6.46 49.14-28.36 95.25-65.72 130.17-86.19 80.54-179.74 162.42-276.09 233.26-108.23 79.55-221.4 152.86-338.84 219.5-92.6 52.52-188.31 101.1-290.83 134.62-89.68 29.31-251.53 69.81-390.38 69.81zm1179.05-1145.08c-.88-.99-1.76-1.94-2.65-2.93-.21-.46-.38-.95-.6-1.44 1.52 1.44 3.07 2.89 4.59 4.3-.42.03-.88.03-1.34.07z"/><path class="fil6" d="M12851.93 5738.25c-10.91-14.11-22.41-27.77-34.4-40.96.46-.04.92-.04 1.34-.07 8.61 7.94 17.32 15.38 26.04 22.58 2.43 6.1 4.76 12.27 7.02 18.45zm-37.05-43.89c-3.98-4.3-8-8.57-12.1-12.8 3.78 3.91 7.62 7.69 11.5 11.36.22.49.39.98.6 1.44z"/><path class="fil4" d="M11406.52 10779.55h.18l-.18-.53zm-297.46 6038.21v.04z"/><path class="fil4" d="M16898.71 17932.08c-99.55 8.89-210.68-16.54-310.2-26.28-159.84-15.59-319.65-32.53-479.42-49.81-308.68-33.41-617.36-68.86-926.18-99.17-622.55-60.89-1244.85-125.76-1867.01-193.74-3.11-20.54-8.22-40.86-9.14-61.56-7.23-159.6 52.53-323.18 156.88-449.3 74.54-90.38 171.35-159.35 279.08-198.23-8.5 28.15-16.01 56.59-21.2 85.66-3.52 19.86-6.77 43-5.64 69.35 1.13 26.46 7.05 57.29 24.62 88.3 31.29 52.99 79.73 80.86 121.68 97.55 36.61 14.39 74.78 21.9 112.43 23.28 54.57 1.91 108.33-9.1 155.68-33.58 97.33-50.31 140.83-145.14 172.58-242.79l7.65.29 7.34-1.1c152.29-22.65 305.86-54.08 459.49-85.65-31.85 48.43-51.93 114.72-59.12 135.18-16.34 46.5-26.22 93.56-35.81 142.07-1.87 9.52-3.7 19.5-.64 29.14 2.16 6.84 6.74 12.94 11.93 18.34 22.96 23.99 60.04 34.71 90.84 26.25 70.48-19.37 74.72-128.73 96.69-184.51 15.42-39.01 33.87-76.76 54.97-112.99 10.51-18.17 44.87-94.62 66.5-98.81 88.79-17.25 177.34-32.49 265.5-45.48-8.65 13.59-18.24 26.74-26.14 40.57-44.91 78.78-87.21 165.95-113.25 253.16-9.7 32.63-19.5 66.85-11.92 101.28 7.59 34.36 38.56 68.54 74.86 68.54 12.31-.03 24.09-3.88 34.36-9.7 11.11-6.21 20.64-14.71 27.94-24.76 9.53-13.09 15.1-28.54 20.53-43.82 32.35-90.59 62.34-179.95 110.07-263.52 30.73-53.84 67.24-103.68 109.04-147.01 72.64-5.57 144.85-8.39 216.43-6.95-19.3-.38-69.92 89.68-80.57 105.34-26.07 38.46-49.89 78.46-71.19 119.77-35.88 69.57-94.37 169.69-76.38 253.33 3.35 15.52 9.74 31.26 21.84 42.65 25.5 23.96 68.33 19.83 94.05-.03 25.79-19.9 38.66-50.98 50.62-80.75 32.95-81.99 61.67-159.99 110.7-234.21a1025.46 1025.46 0 0178.57-103.93c32.13-37.36 63.5-75.71 100.61-108.69 29.31-26.07 73.73-74.93 119.48-66.15l7.52 2.82c3.21 2.37 4.73 6.21 5.22 9.92 1.48 11.32-5.12 21.48-12.24 29.98-7.13 8.54-15.31 16.83-17.89 27.66-9.03 38.14 130.35 48.97 162.24 54.93 152.44 27.97 301.35 71.33 379.42 119.24 121.35 74.54 214.95 154.2 291.6 274.32 94.27 147.71 136.85 316.02 143.97 482.1 4.94 114.59 23.07 258.8-118.99 271.5zm-3018.61-955.14c9.66-54.33 26.38-106.75 46.39-157.38 105.2-228.74 213.64-610.27 226.66-882.51 76.09-9.31 150.81-20.49 224.93-32.95-8.15 1.38-21.03 130.46-23.6 144.54-9.18 50.97-19.23 101.74-29.85 152.36-21.94 104.74-46.49 208.78-72.88 312.28-25.37 99.34-52.39 198.05-81.35 296.23-12.95 43.85-22.76 95.21-41.77 140.54-17.25 41.21-42.05 77.4-83.57 98.5-22.19 11.57-49.64 17.43-77.09 16.4-57.01-2.04-98.74-29.06-87.87-88.01zm-625.27-1154.68c-548.85-19.72-1072.69-130.25-1606.16-290.13-123.19-36.86-235.76-66.88-363.68-110.06 39.87-138.26 65.65-257.04 105.87-400.76 14.68-52.56 33.23-108.02 47.1-161.15 17.95.57 191.63 9 190.99-5.85 1.24 28.15-9.17 76.69-16.76 102.27-14.67 49.49-23.35 102.8-38.03 152.29-1.48 4.98-2.89 10.55-.28 15.42l7.2 7.12c89.75 66.15 168.94 127.64 268.78 178.69 99.03 50.62 201.58 93.62 306.25 128.87 209.93 70.69 428.37 110.31 645.26 118.11 259.01 9.31 516.12-26.85 753.36-111.06 105.41-38.27 167.71-68.75 188.52-83.89 75.96 9.53 203.38 52.28 300.85 74.3 152.61 34.43 322.09 63.64 477.95 69.25 127.49 4.58 237.84-18.03 358.84-38.32 127-21.34 248.53-64.59 357.47-127.45 12.98-7.52 26.04-15.49 35.35-27.1 10.55-13.23 15.38-30.12 20.04-46.6 34.99-124.28 70.02-248.53 105.02-372.81 22.37-79.34 85.13-59.52 156.14-68.02-6.42 92.07-15.35 183.76-26.81 274.95a4923.202 4923.202 0 01-43.99 283.92c-2.97 15.95-6.32 32.56-16.72 44.59-9.28 10.76-23.08 16.62-36.48 22.05-675.36 274.28-1424.8 398.78-2176.08 371.37zm-915.7 1287.96c-17.04 24.13-54.44 41.06-93.35 39.33-25.54-.88-48.82-8.93-65.72-21.77-30.2-22.93-45.9-54.5-47.91-91.54-1.06-23.81 4.59-48.93 17.25-71.33 86.26-153.32 146.9-357.16 198.09-563.81 44.55-180.73 80.96-361.42 115.82-509.24 67.73 11.54 135.39 23.5 203.37 32.7-54.36 364.6-196.67 855-327.55 1185.66zm-1126.63 372.49l40.53 22.69v.03l-40.53-22.72zm1468.93-423.12c41.48 47.84 67.87 115.08 86.25 188.95 19.23 75.85 30.59 153.11 33.97 229.9.57 12.95.25 25.79.36 38.7-410.21 252.17-826.24 494.32-1281.36 651.59-341.6 118.25-709.58 187.36-1076.61 174.13-134.55-4.91-269.03-20.75-402.24-49.18-50.2-10.51-92.14-23.14-118.42-41.77-9.39-6.56-17.82-16.76-25.83-38.03-7.72-20.85-12.59-50.66-13.93-83.57-2.93-62.16 5.64-132.29 7.41-189.9 3.7-130.11 30.62-249.49 94.72-353.56 50.59-82.09 116.1-154.41 190.74-216.85 38.74-32.38 79.94-62.12 122.95-89.5 15.38-9.74 36.47-17.04 50.2-28.12 4.76-3.77 7.02-10.97 3.49-16.43-4.09-6.43-13.19-7.45-20.81-7.7l-90.56-2.92c-4.91-.14-10.23-.46-14.11-3.6-7.76-6.21-3.85-17.89 2.29-24.66 24.66-27.2 86.75-28.36 123.44-31.08 49.49-3.67 99.87 2.54 149.33 12.77 80.01 16.55 156.49 22.75 234.84 51.96 104.57 38.95 202.43 95.15 291.57 162.14 45.44 34.11 88.59 71.02 129.54 110.03 34.89 33.27 67.45 89.08 118.64 97.33 27.7 4.41 56.31-4.34 74.61-22.86 6.11-6.24 11.15-13.51 13.87-21.8 28.33-86.22-168.77-222.67-228.28-268.57-106.93-82.48-225.43-151.34-352.11-198.51-6.49-2.43-13.44-3.42-20.04-5.75 69.04-19.72 139-37.95 210.43-53.79 132.75 45.47 258.73 114.05 368.66 201.54 54.89 43.71 104.7 92.14 150.77 144.14 37.64 42.51 94.69 92.01 151.27 55.18 12.25-7.98 22.16-20.04 23.85-34.47 1.48-12.81-3.53-25.86-8.43-38.38-31.54-80.15-111.65-148.31-177.73-205.74-76.87-66.82-161.64-125.27-251.56-173.99 56.55-10.62 113.13-20.57 169.75-29.64 33.13 21.45 70.66 42.2 100.86 67.35 73.1 60.78 139.67 117.9 204.26 192.58 18.52 21.38 30.34 47.24 48.58 68.86 18.2 21.66 41.77 40.86 69.35 47.66 27.63 6.74 59.34-1.83 71.65-24.8 15.95-29.77-4.58-67.55-25.93-97.12-72.78-100.54-162.52-200.09-257.6-282.36 114.69-11.96 229.35-18.94 343.79-14.82 13.33.46 26.67 1.77 40 2.54-17.43 38.92-27.62 80.4-25.79 122.98 3.04 77.86 41.31 159.35 115.22 214.74 50.2 37.71 109.29 55.49 165.74 57.54 77.82 2.78 146.26-25.05 197.09-76.87 61.35-62.48 80.22-154.98 108.69-236.05 40.5 3.6 90.03 30.59 123.16 69.78zm-920.93-2017.36c37.57-177.45 70.06-356.3 97.72-536.22 33.94-220.49 60.29-442.67 81.67-665.62 20.64-215.44 23.92-192.41 45.61-406.65 364.25 16.58 578.42 31.93 1001.29-35.91 277.04-44.42 345.16-341.38 271.25-558.45 12.6 36.97-80.99 118.61-104.38 138.61-46.08 39.44-101 66.5-162.74 76.45-209.8 33.86-438.26 11.46-634.01-93.31-496.15-265.61-373.14-836.02-409.54-1281.96-47.17-577.57-131.98-1155-251.11-1728.05-101.7-489.09-217.98-978.39-395.89-1452.56 7.84 20.88 216.15 75.42 246.84 87.42 93.14 36.65 151.59 49.17 193.61 144.81 94.96 216.36 190.07 432.61 285.04 649.01 32.56 74.22 69.64 153.77 141.39 197.87 81.46 50.13 182.99 39.76 274.04 25.54 241.94-37.47 480.66-88.48 714.59-152.05 116.35-31.68 233.11-64.84 346.29-104.38 75.95-26.67 173.63-61.42 203.27-138.61 21.16-55.28 14.71-118.08 8-178.65-14.99-137.47-30.19-275.02-45.36-412.64l-23.46-212.97c-3.57-32.18-29.49-123.79-12.67-152.33l10.9-9.03c47.06-26.67 96.31-50.27 147.25-70.28-2.47.96 173.5 355 190.61 384.28 74.93 128.59 145.59 257.04 235.09 378.11 23.78 32.07 49.35 64.49 84.45 84.88 71.34 41.38 158.37 21.66 233.9.6 105.05-29.35 197.13-71.02 297.32-110.31 250.54 873.05 425.73 1753.23 522.04 2643.15 27.44 253.01 52.14 506.16 70.98 759.32 9.49 127.42 17.53 254.77 23.56 382.09 4.94 103.12 11.82 203.84-82.02 264.65-47.62 30.91-105.27 44.6-161.75 57.79-57.99 13.58-116.03 27.13-174.02 40.67-158.82 37.15-322.41 74.51-488.6 49.75 63.78 65.58 161.75 79.23 250.47 84.1 153.74 8.36 309.74 13.58 460.27-5.65 72.67-9.31 121.78-17.18 217.21-25.75 6.03 168.73-9.17 345.12-17.08 513.54-7.97 170.18-22.82 339.72-50.3 506.55-27.91 169.65-63.36 337.47-102.52 504.16-19.83 84.63-40.64 168.98-61.91 253.15-6.39 25.58-48.79 223.59-62.44 223.1-5.9 20.28-12.46 41.56-28.33 55.14-9.53 8.18-21.73 12.87-33.69 17.42-66.85 25.47-133.07 51.33-201.83 71.83-125.3 37.89-259.39 52.56-396.03 47.66-139.41-5.01-292.17-31.71-431.87-57.4-89.21-16.44-175.96-38.06-280.52-67.41 56.97-423.65 119.83-845.79 144.56-1275.61 24.87-432.44 32.67-747.19 18.1-1183.04-9.59-286.28-23.67-549.14-54.12-869.39-9.45-99.97-36.93-279.57-100.64-396.34 34.6 1181.59 4.65 2350.48-184.54 3505.41-18.59 113.49-19.4 185.98-76.45 241.65-40.92 39.9-123.19 74.12-203.9 95.11-177.45 46.11-363.96 65.16-551.39 58.46-351.83-12.67-708.17-116.42-1013.36-303.71l-22.51-15.14-3.81-6.06c-.45-6.11 1.49-19.83 5.47-36.8zm2921.64-7956.62l38.73-16.23c64.84-41.13 125.52-87.8 181.26-139.41 23.25 10.97 46.64 21.83 69.88 32.8-161.64 113.85-335.1 237.14-520.13 316.8-24.94-94.37-61.84-189.51-96.63-283.81l326.89 89.85zm1978.09 9690.81c-116.17-69.01-275.69-110.78-438.61-141.85-56.9-10.84-119.62-10.02-174.23-22.27-2.05-18.59-6.74-37.04-13.9-54.75-2.68-6.66-5.89-13.51-11.47-18.45-7.76-6.88-18.62-8.99-28.78-9.87-42.55-3.46-78.32 11.21-109.54 34.85-34.15 25.96-56.23 19.51-102.94 16.86-47.52-2.68-94.72-2.64-141.47-3.77 4.24-21.42-7.12-44.17-28.36-55.56-20.81-11.15-45.54-11.01-67.84-6.99-55.84 10.02-88.86 42.12-127.81 76.34-13.48 11.86-78.32 8.08-98.21 10.44-34.75 4.13-69.22 9.71-104 13.69 19.22-19.93-33.76-61.49-55.04-68.15-14.53-4.52-29.81-3.85-44.45-2.09-46.56 5.54-90.69 21.98-128.02 47.13-20.64 13.94-62.16 74.55-83.89 78.89-188.45 37.71-373.03 78.03-552.24 107.21 81.74-288.26 161.57-628.87 195.51-902.94 1.48-10.62 220.42-54.61 245.25-61.63 89.68-25.33 181.51-44.73 271.15-70.34 175.89-50.24 348.68-108.73 517.77-175.23 13.86-5.43 28.33-11.43 36.94-23.25 7.65-10.4 9.66-23.99 11.43-37.07 36.61-266.99 82.48-561.94 88.26-833.69-31.93-1.16-69.71 3.81-108.06 8.79-48.18 6.24-97.29 12.48-136.73 6.56 18.52-146.33 60.5-290.13 82.62-436.39 22.54-148.69 39.26-298.7 50.8-449.44 22.44-293.76 25.05-590.3 12.38-887.23-4.9-115.36-11.64-230.83-19.4-346.25-3.78-55.92-5.58-95.4 9.42-144.36 12.91-41.98 15.91-79.48 12.52-123.61-.25-3.36-.56-6.81-.88-10.31-26.21-274.99-57.12-549.91-92.68-824.61-17.74-137.34-36.68-274.64-56.76-411.87-16.01-109.19-49.03-210.43-66.71-319.55-51.33-317.46-112.36-634.19-183.41-949.78a15724.85 15724.85 0 00-113.84-472.51c-20.14-78.67-41.06-157.24-62.48-235.69-21.02-76.49-48.04-151.66-66.71-228.5 119.49-42.75 221.48-129.47 324.31-199.11 55.39-37.42 113.46-78.49 135.79-140.44 16.05-43.95 11.92-93.24 7.65-140.86-25.68-290.41-66.18-560.11-142.13-846.91-46.6-176.43-54.15-342.94-123.65-514.35-30.55-101.18-120.54-130.71-212.23-170.54-105.76-46.1-213.57-87.27-322.72-123.47-80.61-26.63-161.89-50.59-243.7-71.75-21.91-5.75-186.55-31.82-193.64-51.02-30.23-81.91-60.4-163.51-90.63-245.35-9.63-.36-143.33-333.55-158.04-365.34-65.66-141.85-154.42-296.76-223.52-437.27-158.05 12.95-278.03 25.23-436.53 35.63-81.35 5.33-162.63 17.57-244.19 22.02-92.47 5.01-190.68 7.37-281.84 22.75 6.07 10.8 20.46 12.88 30.83 19.65 10.13 6.67 16.27 17.82 21.66 28.68 15.35 30.73 28.19 62.73 38.42 95.53 127.28-15.48 255.27-28.61 383.44-37.71 113.1-8.08 226.59-13.51 340.36-16.33 8.71-.25 17.88-.35 25.96 3.6 8.15 3.95 14.01 11.39 19.47 18.62 151.7 200.06 247.58 420.97 332.43 650.74 117.44 318.13 235.02 636.16 352.32 954.16-348.41 207.36-718.75 384.95-1102.86 534.07-331.4 128.83-672.75 237.7-1020.41 330.37-86.43 23.29-170.07 53.48-242.11 61.95-15.27 1.83-29.88 2.33-44.34 1.83-60.36-1.58-125.42-24.97-213.54-50.97-183.66-53.34-367.03-106.54-550.54-159.7-60.26-164.36-120.51-328.58-180.77-492.94-34.29-93.52-68.51-187.04-100.96-281.06-20.64-59.83-36.62-102.06-58.78-171.77-15.73-49.35-33.72-102.58-48.96-152.08 60.22-56.83 165.98-154.48 189.72-175.05 115.57-100.12 210.51-218.33 312.07-330.94 5.75-6.31 11.57-12.87 14.5-20.92 7.02-19.4-4.87-40.04-15.28-57.85-21.3-36.48-38.31-75.46-50.51-115.89-83.89 124.28-191.53 222.32-295.21 330.09-54.33 56.48-108.51 113.14-163.76 168.7-16.05 16.12-167.5 145.84-163.62 156.71 66.68 186.01 134.41 371.86 192.13 560.17 25.18 82.13 49.21 163.27 78.42 244.41 11.78 32.66 59.62 229.02 86.32 239.04-17.95-6.71-37.5-9.81-55.98-13.69-127.35-26.71-256.47-46-384.85-60.15-60.04-6.63-128.69-19.08-187.29-8.82-78.17 13.69-117.26 49.78-159.84 110.56-77.86 111.13-119.98 214.49-157.37 315.67 205.21-1.94 314.78 16.9 534.35 38.2 200.27 19.48 391.3 54.68 587.16 103.09 96.03 245.95 179.49 495.79 249.66 748.24 147.53 531.46 238.66 1076.04 325.97 1614.91 119.87 739.74 168.63 1497.65 132.64 2235.8-26.24 537.67-55 1091.88-153.67 1616.6-10.93 56.45-347.8 56.38-399.02 58.46-17.33 75.03-49.18 215.79-62.94 272.06-39.4 161.57-75.28 285.04-119.98 526.1 76.34 32.59 271.6 106.39 288.71 113.06 117.76 46 237.85 84.85 359.34 116.24 39.9 10.3 567.13 124.22 568.58 117.97-34.58 148.31-69.71 321.66-111.84 492.44-36.33 147.99-78.56 292.39-127.91 411.06l.1-7.27c-37.57-3.38-75.03-5.68-112.36-7.02-179.17-6.38-354.36 10.34-526.23 35.67-15.49 2.26-37.26-20.25-51.79-26.74-21.38-9.6-45.58-14.64-68.44-16.83-44.1-4.23-88.62 3.78-125.66 23.88-41.81 22.76-32.07 64.49-80.82 81.07-39.23 13.3-83.05 12.1-123.65 20.78-115.99-35.07-236.33-46.35-314.01 50.55-8.64 10.83-10.44 28.19-19.86 36.09-12.7 10.66-44.45 14.36-60.82 20.04a2244.532 2244.532 0 00-120.54 45.47l-7.34-.88c-94.97-3.42-203.77 5.65-266.81 75.39-19.86 21.94-17.74 40.15-24.8 66.04-6.06 22.12.96 20.11-23.77 37.71-38.92 27.66-76.17 57.68-111.38 89.47-69.35 62.58-130.77 133.35-179.38 212.33-79.8 129.61-110.92 275.1-114.94 422.35-1.06 46.18-10.69 122.2-7.37 200.34 1.97 42.12 7.44 85.76 23.18 129.19 15.52 43 43.71 88.02 90.1 119.98 62.65 42.61 128.09 57.36 182.35 69.39 143.96 30.76 288.43 47.77 432.18 52.92 392.29 14.04 778.9-59.45 1135-182.67 486.37-168.24 921.52-425.35 1344.15-685.66l32.1-19.83.99-37.64c.71-28.57.46-57.25-.78-85.97-3.81-87.03-16.68-174.31-38.41-260.24-21.35-83.79-52.95-175.72-121.32-255.77-49.57-57.11-117.65-102.97-195.62-122.38 96.03-295.84 181.61-629.46 221.26-903.46 144.71 15.66 289.46 27.9 433.29 33.06 247.72 8.78 491.94.81 729.47-20.71-16.79 214.1-98.39 518.83-181.33 722.63-192.83 30.55-358.46 132.92-475.3 274.32-124.21 150.77-196.56 344.17-188.17 544.09 2.15 49.6 9.39 99.59 22.26 149.26l14.71 56.76 60.36 6.63c644.92 70.77 1290.18 137.73 1935.48 200.87 404.64 39.62 808.99 88.06 1213.52 129.9 198.83 20.56 397.83 40.25 596.8 55.31 112.11 8.5 127.28-9.88 152.08-109.61 25.68-103.4 41.56-209.9 36.97-318.52-14.99-354.08-184.25-691.66-518.09-889.95z"/><path class="fil0" d="M12625.02 9186.76c12.1-306.85 117.76-598.53 125.98-905.8-.36 12.63-98.99 20.82-110.25 29.85-28.54 23-19.93 22.79-27.83 60.68-16.93 81.28-3.74 181.85-3.74 265.71-.04 182.88 5.26 366.15 15.84 549.56zm1889.12-163.23c234-74.9 457.73-175.69 665.7-300.18 71.75-42.97 152.82-76.94 211.52-137.09 63.96-65.58 52.07-168.31 40.54-257.46-57.3-443.09-154.84-883.14-252.28-1322.46 80.83 213.68 143.02 398.36 192.41 602.58 37.85 156.42 75.71 312.85 113.56 469.23 35.63 147.25 85.58 332.42 26 472.97-53.2 125.52-214.95 191.38-323.78 260.95-150 95.89-308.19 180.13-472.72 251.92-30.17 13.19-61.18 26.1-94.94 29.21-34.11 3.14-70.06-4.16-101.31-20.6l-4.7-49.07zm148.91-1953.19c-10.55 7.09-21.17 14.18-31.78 21.23-87.67 58.21-176.82 114.37-267.3 168.45-82.73 49.46-174.03 120.51-268.26 147.96-89.95 26.18-173.28 80.82-246.73 136.28-125.66 94.93-319.23 185.42-478.79 220.73 287.41-63.61 564.98-196.81 823.88-320.32 137.86-66.82 273.4-137.41 403.36-217.17 130.78-80.22 245.89-179.74 373.53-262.57-28.58-17.4-58-32.67-86.22-50.17-7.52-4.66-110.77 79.45-123.09 88.02a6377.53 6377.53 0 01-98.6 67.56zm-3674.81 1344.15c190.18 38.21 374.89 103.96 559.96 164.99 32.6 10.76 65.58 21.7 94.93 40.11 78.5 49.29 116.14 141.15 147.43 226.31-48.58-25.15-73.94-40.81-122.59-65.83-169.05-86.85-291.43-141.04-435.96-207.36-183.59-84.21-359.7-156.39-552.98-204.68l309.21 46.46zm428.76-271.5c150.18 41.88 321.56 102.31 474.84 124.46-29.14-76.2-119.13-111.93-200.84-133.91-407.42-109.5-794.59-204.05-1202.79-252.63 72.95 19.51 150.04 41.95 214.56 56.24 86.99 19.19 175.96 47.9 262.54 69.46 171.16 42.65 229.16 74.29 451.69 136.38zm1494.4 683.61c29.39-212.01 66.93-422.41 112.5-630.62-47.8 37.75-62.97 31.29-81.63 86.43-18.31 54.12-12.63 128.87-16.83 186.55-8.5 117.3 1.94 242.18-14.04 357.64zm1725.72-660.82c73.63-147.57 58-325.75 95.99-487.18 21.49-91.27 60.58-179.89 54.01-275.21-48.75 37.47-86.74 50.06-105.86 104.53-22.12 62.83-10.52 156.85-15.03 224.58-5.05 75.11-10.09 150.21-15.1 225.32-3.78 55.88 10.37 159.1-14.01 207.96zm256.58-401.6c44.69-150.99 92.18-314.36 100.79-473.82-173.08 45.34-62.59 344.88-100.79 473.82z"/><path class="fil5" d="M13301.01 7726.22c-72.71-109.93-155.4-214.28-234.74-319.33-34.04-45.09-65.54-92.01-99.73-136.99-7.26-9.63-84.13-110.84-97.65-110.84-.31 0-.6.03-.84.14-19.86 9.24-39.83 18.27-59.9 27.13-74.93 33.16-151.13 64.17-226.84 93.98-85.87 33.83-171.73 67.63-257.56 101.46-179.64 70.77-362.8 121.39-557.78 125.02-7.3.14-14.61.21-21.94.21-185.53 0-373.21-43.81-531.99-141.64-147.46-90.87-285.93-174.69-348.72-332.52-5.54-13.97-10.76-28.69-9.17-43.08 1.83-16.65 12.48-30.23 22.89-42.86 110.74-134.37 236.93-256.01 375.81-362.27 29.32 32 66.71 81.53 105.87 126.9 22.76 42.15 47.63 83.18 74.47 122.87 10.16 15.03 21.07 30.3 36.66 39.51 12.06 7.16 26.07 10.16 39.79 12.81 81 15.73 163.34 23.42 245.75 23.42 320.78 0 641.91-116.52 883.67-328.05 80.57-70.48 152.26-150.46 217.95-234.77 54.22-69.64 115.88-117.44 134.83-206.84 5.89-27.79 8.53-56.51 8.5-85.47 5.19-39.48.42-80.97-14.29-120.12-5.82-25.4-13.16-50.24-21.66-74.02-1.94-5.43-4.02-10.62-6.21-15.63 148.06-24.8 299.26-37.25 451.42-37.25 26 0 52.03.35 78.07 1.09 16.47.46 33.51 1.2 48.89 8.22 15.52 7.1 27.77 19.94 38.98 32.85 152.76 175.89 109.58 421.04-69.74 571.39-78.74 66.01-177.02 104.78-257.81 168.24-213.08 167.29-101.35 454.56-48.01 672.61 31.89 130.46 67.06 312.14 101.03 463.83z"/><path d="M11755.39 6910.14c-82.41 0-164.75-7.69-245.75-23.42-13.72-2.65-27.73-5.65-39.79-12.81-15.59-9.21-26.5-24.48-36.66-39.51a1445.186 1445.186 0 01-74.47-122.87c35.99 41.69 73.45 79.9 107.53 97.82 45.37 23.88 106.22 33.02 172.23 33.02 138.85 0 300.7-40.5 390.38-69.81 102.52-33.52 198.23-82.1 290.83-134.62 117.44-66.64 230.61-139.95 338.84-219.5 96.35-70.84 189.9-152.72 276.09-233.26 37.36-34.92 59.26-81.03 65.72-130.17.03 28.96-2.61 57.68-8.5 85.47-18.95 89.4-80.61 137.2-134.83 206.84-65.69 84.31-137.38 164.29-217.95 234.77-241.76 211.53-562.89 328.05-883.67 328.05zm1230.66-975.25c-11.5-30.52-29-59.62-52.6-85.38 8.26-1.44 16.48-2.89 24.73-4.27 2.19 5.01 4.27 10.2 6.21 15.63 8.5 23.78 15.84 48.62 21.66 74.02z" fill="#68615f" fill-rule="nonzero"/><path class="fil5" d="M14242.47 15322.83c-53.83-8.61-107.24-18.24-158.86-27.73-89.21-16.44-175.96-38.06-280.52-67.41 56.97-423.65 119.83-845.79 144.56-1275.61 24.87-432.44 32.67-747.19 18.1-1183.04-9.59-286.28-23.67-549.14-54.12-869.39-5.92-62.86-19.01-157.23-43.74-247.61 265.75 539.57 424.67 1161.24 474.06 1749.32 53.55 637.4 24.91 1303.37-99.48 1921.47z"/><path class="fil9" d="M14229.1 15387.5c-110.46-59.66-511.74-72.61-484.4-251.5 6.77-44.2 13.23-88.48 19.44-132.79 157.23-1121.05 122.87-2260.31 75.67-3407.09a4108.89 4108.89 0 0128.08 55.92c24.73 90.38 37.82 184.75 43.74 247.61 30.45 320.25 44.53 583.11 54.12 869.39 14.57 435.85 6.77 750.6-18.1 1183.04-24.73 429.82-87.59 851.96-144.56 1275.61 104.56 29.35 191.31 50.97 280.52 67.41 51.62 9.49 105.03 19.12 158.86 27.73-4.34 21.63-8.82 43.18-13.37 64.67z"/><path class="fil5" d="M12251.25 17149.69c-1.8 0-3.63-.03-5.47-.14-25.54-.88-48.82-8.93-65.72-21.77-30.2-22.93-45.9-54.5-47.91-91.54-1.06-23.81 4.59-48.93 17.25-71.33 86.26-153.32 146.9-357.16 198.09-563.81 44.55-180.73 80.96-361.42 115.82-509.24 67.73 11.54 135.39 23.5 203.37 32.7-54.36 364.6-196.67 855-327.55 1185.66-16.23 22.96-50.98 39.47-87.88 39.47z"/><path class="fil9" d="M12220.74 17233.44c-72.08 0-149.97-44.48-170.89-113.73-2.22-7.41-3.77-14.82-4.76-22.27-23.57-176.88 151.23-406.96 208.7-564.37 83.4-228.18 149.51-463.62 197.7-703.9 3.38-17.04 9.24-36.83 26.24-41.06 2.23-.53 4.48-.78 6.78-.78 6.24 0 12.73 1.73 18.98 3.46 90.31 24.84 209.65 90.84 293.68 101.95-38.27 161.54-76.62 323.08-114.9 484.65-15.45 64.98-31.04 130.56-60.04 189.97-84.14 172.58-59.83 409.26-200.73 549.17-44.73 58.81-107.63 108.41-183.94 116.1-5.54.53-11.14.81-16.82.81zm242.57-1341.58c-34.86 147.82-71.27 328.51-115.82 509.24-51.19 206.65-111.83 410.49-198.09 563.81-12.66 22.4-18.31 47.52-17.25 71.33 2.01 37.04 17.71 68.61 47.91 91.54 16.9 12.84 40.18 20.89 65.72 21.77 1.84.11 3.67.14 5.47.14 36.9 0 71.65-16.51 87.88-39.47 130.88-330.66 273.19-821.06 327.55-1185.66-67.98-9.2-135.64-21.16-203.37-32.7z"/><path class="fil5" d="M13974.15 17065.06c-2.05 0-4.1-.04-6.18-.11-57.01-2.04-98.74-29.06-87.87-88.01 9.66-54.33 26.38-106.75 46.39-157.38 105.2-228.74 213.64-610.27 226.66-882.51 76.09-9.31 150.81-20.49 224.93-32.95-8.15 1.38-21.03 130.46-23.6 144.54-9.18 50.97-19.23 101.74-29.85 152.36-21.94 104.74-46.49 208.78-72.88 312.28-25.37 99.34-52.39 198.05-81.35 296.23-12.95 43.85-22.76 95.21-41.77 140.54-17.25 41.21-42.05 77.4-83.57 98.5-20.54 10.69-45.55 16.51-70.91 16.51z"/><path class="fil9" d="M13977.11 17104.75c-72.07 0-149.97-44.49-170.85-113.77-2.22-7.41-3.77-14.82-4.76-22.26-23.46-176.82 151.41-406.9 209.02-564.38 65.79-179.74 89.67-380.33 63.36-577.49 68.61 11.88 137.79 17.81 206.51 17.81 62.3 0 124.25-4.9 185-14.68 2.89 209.48 5.29 420.76-86.43 608.69-84.24 172.58-60.08 409.26-201.01 549.17-44.77 58.77-107.67 108.44-184.01 116.06-5.58.57-11.19.85-16.83.85zm400.97-1200.65c-74.12 12.46-148.84 23.64-224.93 32.95-13.02 272.24-121.46 653.77-226.66 882.51-20.01 50.63-36.73 103.05-46.39 157.38-10.87 58.95 30.86 85.97 87.87 88.01 2.08.07 4.13.11 6.18.11 25.36 0 50.37-5.82 70.91-16.51 41.52-21.1 66.32-57.29 83.57-98.5 19.01-45.33 28.82-96.69 41.77-140.54 28.96-98.18 55.98-196.89 81.35-296.23 26.39-103.5 50.94-207.54 72.88-312.28 10.62-50.62 20.67-101.39 29.85-152.36 2.57-14.08 15.45-143.16 23.6-144.54z"/><path class="fil4" d="M11457.71 9254.98c-7.09 3.07 78.88 342.2 110.95 376.59 99.66 106.97 385.83 189.83 523.56 216.08-40.18 51.26-111.37 54.05-179.64 53.69-194.02-.95-397.86 13.8-584.16-77.93-66.57-32.77-197.41-132.57-232.45-202.7-79.83-159.88 249.7-316.59 361.74-365.73z"/><path class="fil7" d="M11413.19 12338.58c-4.2 139.95-39.54 664.1-49.92 803.31 506.42 181.86 1113.55 162.24 1657.67 131.37 140.44-7.97 253.26-102.48 259.15-240.45 2.58-60.89 18.1-388.06 16.12-776.25-.77-148.7-3.88-297.54-9.27-446.48-1.31-34.85 2.75-385.51-26.22-397.37-268.32-109.75-480.27-326.67-682.59-536.89-276.26-286.98-424.7-652.81-485.73-1027.61-295.67 8.15-736.18-88.01-1003.45-242.46 12.42 37.75 75.22 242.96 85.24 277.95 39.65 138.26 68.61 303.15 93.94 443.45 49.07 271.67 78.81 525.18 104.95 798.16 38.77 405.05 52.21 810.54 40.11 1213.27z"/><path class="fil4" d="M15303.34 10060.59c-11.14 86.22-28.22 168.02-47.8 238.65-74.89 270.02-266.24 489.37-458.19 681.88-143.82 144.22-295.55 246.03-468.17 354.97 315.03-198.79 522.78-682.87 618.35-1028.81 56.73-205.38 85.06-419.94 83.4-637.08-.57-70.84-29.39-197.48 18.45-257.35 63.57-79.59 154.34-17.25 198.65 77.96 74.89 161.05 80.18 376.49 55.31 569.78z"/><path class="fil7" d="M14703.2 13157.27c390.45-35.21 635.53-76.59 1039-170.14-33.34-1146.18-190.08-2267.31-459.32-3403.15-94.26 663.86-407.46 1287.25-937.72 1714.5-26.6 21.42-54.71 43.75-66.25 75.36-10.97 29.95-5.29 63.92.35 96.34 85.59 493.22 138.51 989.01 158.44 1483.57 5.36 133.18 136.84 236.26 265.04 203.63l.46-.11z"/><path class="fil4" d="M15471.34 11699.42c-292.53 36.61-620.29 94.22-874.65 115.32 151.2 80.64 665.94 60.68 874.65-115.32zm-806.63 773.32c12.52 68.93 28.36 139.7 67.27 199.18 57.82 88.47 159.5 138.92 258.87 154.66 99.42 15.73 198.41 1.34 295.7-12.99 73.98-10.9 147.99-21.83 221.97-32.77-217.95 22.9-567.55 74.19-714.66-157.13-55.63-87.41-81.03-178.01-100.26-277.17-27.94-144.01-40.78-258.59-63.6-376.31 1.05 39.23-15.07 90.91.17 249.13 8.12 84.63 19.26 169.23 34.54 253.4zm-536.79-2206.45c52.92-17.43 117.97-34.32 163.16 3.71 25.83 21.66 36.87 56.76 34.61 88.58-6.53 90.73-101.18 140.93-187.32 169.3-137.38 45.15-283.99 71.75-432.83 68.58-67.91-1.45-380.54-17.64-400.65-109.12-24.8-112.99 277.74-102.97 332.6-110.06 167.71-21.63 332.14-58.78 490.43-110.99zM14587.1 9692c-1.87-43.95-12.07-84.27-43.29-106.57-16.72-11.92-37.6-15.56-57.78-15.95-50.87-.95-100.26 16.48-148.06 34.72-220.31 84.14-427.92 202.1-647.88 284.41-160.62 60.08-331.79 80.92-500.56 98.63-147.14 15.42-300.56 28.58-438.64-26.91-2.89 40.18-21.31 109.5-10.69 147.71 9.63 34.71 48.26 38.2 81.56 44.69 227.02 44.28 457.41 29.99 680.26-10.26 187.15-33.8 366.4-103.01 539.83-182.64 84.31-38.7 204.71-87.45 294.28-110.03 78.71-19.82 243.98-33.05 243.77-13.3.43-38.1 9.39-93.7 7.2-144.5z"/><path class="fil4" d="M12852.1 10257.93c9 56.23 26.6 110.1 55.95 158.79-52.1-15.6-109.46-22.44-148.38-63.29-41.98-44.03-75.84-108.83-91.19-168.52-33.97-132.08-21.2-261.59 44.27-373.1 8.89-15.17 21.24-31.96 38.25-31.36 7.02.24 13.54 3.59 19.86 6.87 38.52 20.04 105.62 37.22 149.54 56.94-33.69 31.68-46.64 80.61-55.88 127.14-18.52 93.46-27.31 193.26-12.42 286.53zm-1523.15 1146.67c-5.4-36.41-8.01-71.86-10.27-93.24-5.57-52.63 43.32-198.86-17.6-227.01-67.49-31.19-39.97 212.02-31.96 245 16.33 67.31 50.34 141.85 99.52 191.52-21.28-21.48-32.78-69.6-39.69-116.27zm139.06-4459.32l.22-.04.1.07zm551.15-587.52c10.3 16.44 16.61 45.65-2.08 50.69l-26.46-13.51c-30.06-32.95-58.81-65.83-85.8-99.48-43.85-54.47-85.05-111.55-100.79-182.85l2.83-38.45c33.51-49.03 88.54 55 103.29 78 41.17 64.81 67.95 139.95 109.01 205.6zm475.72-546.66c-46.18-74.55-85.44-152.02-112.11-237.18-5.33-17-7.06-40.81 8.78-48.72l32.56 8.61c52.88 43.96 90.07 113.39 129.33 170.08 45.54 65.54 88.79 133.91 137.13 197.16 28.43 41 56.9 82.02 81.8 125.31l2.51 4.3c15.7 27.87 6.91 92.64-34.93 85.84-25.85-4.27-62.01-57.58-79.97-76.17-65.12-67.73-115.43-149.05-165.1-229.23z"/><path class="fil4" d="M10242.6 1639.99c63.12 169.16 421.75 1249.19 484.09 1418.63 291.43 789.44 668.26 1537.76 1072.09 2264.34 15.03 26.35 23 45.43 23.14 53.87 1.02 10.47-1.9 23.1-15.87 42.54-12.42 16.79-32.88 35.35-54.44 49.99-72.07 49.64-156.6 74.22-218.3 53.52-19.43-6-38.03-16.16-55.77-30.17-32.39-25.29-61.42-64.03-83.4-106.92-281.97-546.81-534.07-1111.61-749.12-1692.95a35209.446 35209.446 0 01-139.1-383.68c-137.27-385.41-567.27-1682.4-679.98-2076.06-13.69-47.7-31.29-95.15-42.37-143.65 68.58-25.19 137.02-50.41 205.46-75.67l11.68-1.27 8.25 10.37 41.73 97.54c11.01 25.61 18.35 52.71 28.65 78.53 62.79 157.23 108.58 294.29 163.26 441.04zm1588.85 3959.3c32.49-22.3 65.4-50.27 92.67-86.93 29.35-39.51 53.27-93.91 47.2-155.32-2.86-26.25-9.84-48.44-17.88-67.17-1.87-4.38 147.63-33.2 269.27-56.41 72.96-14.04 135.75-26 150.04-29.49 129.82 189.47 280.99 357.22 404.1 552.06l161.01 254.74c13.94 20.85 20.08 34.99 20.39 39.3 1.2 5.04-1.83 23-13.68 48.15-20.57 46.39-46.61 89.82-76.91 130.88-98.21 133.46-244.83 241.62-396.77 335.49-142.38 88.06-288.18 165.67-439.42 208-172.58 48.23-356.41 51.37-533.36 18.88l-7.13-1.52-3.63-7.69c-19.79-46.04-39.55-92.18-59.48-138.29-80.86-187.04-168.24-366.75-239.22-558.1-11.08-29.81-107.88-272.98-92.01-288.07 81.6-77.65 184.47-130 264.66-203.52l23.53 23.95c29.53 23.25 63.39 42.34 101.56 54.37 125.73 37.95 249.91-8.89 345.06-73.31zm-964.36-2600.36c-81.31-220.1-455.75-1352.27-542.22-1570.29-51.57-130-82.9-248.63-145.09-401.74-30.87-75.78-56.8-147.28-90.25-222.81-165.27 46.95-327.37 116.02-491.34 171.59 115.14 434.62 249.55 861.09 396.98 1284.88 22.82 65.9 346.39 1040.73 369.81 1106.56 45.65 128.87 92.33 257.35 139.63 385.41 217.6 587.59 472.13 1158.21 756.71 1709.92l6.32 10.19c-64.32 53.27-311.68 239.78-340.68 260-16.97 11.85 129.12 378.78 139.8 409.08 43.96 124.64 97.41 245.57 149.69 366.89 48.5 112.5 80.89 231.53 133.77 341.03 6.49 13.47 15.52 40.5 44.8 65.51 31.3 23.85 57.75 26.85 73.21 30.09 195.61 35.91 401.14 33.02 598.38-21.94 172.79-48.44 330.44-133.78 478.36-225.18 158.47-98.25 321.67-215.23 440.76-376.03 36.55-49.49 68.73-103.22 94.65-161.25 14.43-33.41 33.84-79.16 26.29-137.62-7.59-48.05-29.07-78.7-42.87-101.03-44.48-66.75-95.28-131.94-134.55-200.81-73.9-129.61-168.48-257.98-257.17-378.7-41.03-55.81-81.42-112.04-121.78-168.49-36.83-51.68-66.78-109.4-107.7-156.74-105.69 18.91-210.61 43.43-314.89 70.03-21.59 5.5-240.81 76.13-248.39 62.19-382.34-693.95-737.03-1405.11-1012.23-2150.74z"/><path class="fil4" d="M12317.82 6299.34c24.45 33.58 53.48 72.11 57.86 116.06 3.7 36.23-27.03 56.06-55.81 37.08l-23.53-19.08c-24.24-23.01-47.42-53.84-66.33-76.66-52.38-63.15-92.67-140.23-138.67-209.59-36.76-55.45-75.07-117.44-68.02-185.52l6.7-20.68 33.24-6.21 26.03 24.98c78.78 110.46 148.31 229.17 228.53 339.62zm-69.57-508.46l18.42-22.72c14.5-3.49 26.63 9.95 35.45 21.95 99.27 135.53 199 273.15 296.44 411.9 9.77 13.93 19.76 28.57 22.86 45.54 2.93 17.04-3.03 37.54-18.38 45.4-46.64 23.92-106.33-75.98-131.97-105.3-45.86-52.95-81.14-109.43-119.67-168.45-40.39-61.84-81.42-125.13-100.33-197.8l-2.82-30.52zm3295.55 5908.54c-291.82 36.61-620.08 94.22-872.95 115.32 142.98 80.64 652.95 60.68 872.95-115.32zm-2507.79 853.51c-11.96 68.26-27.17 138.07-65.13 194.98-56.48 84.56-156.38 127.84-254.21 136.45-97.86 8.61-195.47-12.91-291.43-34.32-72.99-16.27-145.94-32.57-218.9-48.79 214.88 38.59 559.61 115.25 703.26-106.19 54.3-83.71 78.85-172.75 97.23-270.83 26.67-142.45 38.66-256.47 60.5-372.85-.84 39.23 15.31 92.25 1.24 249.87-7.52 84.28-18.03 168.35-32.56 251.68zm1650.15-80.19c6.91 68.93 17 139.7 50.73 199.18 50.16 88.47 146.65 138.92 243.59 154.66 96.94 15.73 195.9 1.34 293.16-12.99 73.98-10.9 147.88-21.83 221.86-32.77-217.1 22.9-566.52 74.19-693.67-157.13-48.04-87.41-66.04-178.01-77.18-277.17-16.23-144.01-19.9-258.59-33.16-376.31-2.05 39.23-22.02 90.91-19.48 249.13 1.34 84.63 5.68 169.23 14.15 253.4z"/><path class="fil0" d="M11537.86 12543.01c-168.41-101.88-295.66-275.66-410.84-440.19-78.95-133.42-133.7-248.11-178.72-397.44-48.19-159.81-80.22-323.11-95.28-486.66-36.97-402.02 43.53-830.33 332.14-1091.39 19.15-17.32 39.75-34.15 65.05-41.7 51.5-15.31 110.07 11.4 154.48 46.96 129.61 103.82 179.81 272.48 214.6 429.4 35.17 158.61 46.42 320.57 80.22 477.52 33.69 156.35 42.37 313.37 18.38 467.36-18.49 118.74-71.05 268.08-10.09 387.98 46.88 92.26 137.76 123.62 233.32 112.65 51.97-5.93 112.79-18.91 159.81-42.62 30.8-15.59 49.78-39.69 86.64-45.58 28.19-4.55 57.93-4.44 83.51-17.21 4.41-2.16 8.82-4.91 11.32-9.18 4.62-7.9 1.2-17.88-2.29-26.38-28.08-67.88-56.16-135.82-84.25-203.73-21.8-52.81-44.02-107.71-41.73-164.79 5.43-136.48 148.2-162.8 252.66-193.42 103.08-30.27 216.22-44.28 300.32-107.67 58.74-44.31 97.61-108.8 147.78-162.24 132.4-141.11 333.83-197.38 527.08-244.23 217.39-52.67 447.29-100.05 671.62-39.51 47.7 12.91 95.15 30.94 135.22 61.03 73.56 55.17 112.82 142.91 172.69 212.44 78.38 91.05 192.23 150.95 258.62 250.4 35.56 53.31 54.96 114.55 69.81 175.4 92.57 379.17 6.28 795.73-172.12 1119.05-26.98 48.93-55.67 85.09-95.6 124.5-26.85 26.49-63.01 44.73-98.6 76.34-11.18 9.94-283-147.39-384.04-276.48-26.1-33.3-20.91-94.58-8.11-131.93-111.51 44.94-367.91 67.13-493.5 67.87-194.24 1.23-185.1 37.46-344.21 122.98-55.24 29.7-116.13 60.32-180.93 48.26-67-12.45-119.21-66.68-173.92-109.57-203.95-160.02-472.3 60-659.52 111.33-132.51 36.34-278.52 45.05-414.76-.42-44.84-14.99-86.96-35.03-126.76-59.13z"/><path class="fil3" d="M12823.07 11179.14a3530.576 3530.576 0 01312.38-271.99c63.96-49.39 130.71-97.26 208.07-124.96 35.98-12.91 73.84-21.23 112.08-27.41 258.55-41.59 524.61 6.78 727.81 198.48 4.38 12.8 8.37 25.61 12.67 38.48-9.42-1.48-18.77-3.28-28.05-4.23-89.64-7.94-359.58-36.79-385.62 81.35-27.34 123.08 225.29 76.77 297.82 80.86 212.69 11.64 432.86 88.86 507.19 298.94-67.1-32.52-133.57-65.47-206.66-79.9l-8.04-1.66c-89.86-16.58-231.5-25.89-314.26 4.9-92.71 34.36-98.64 160.87 21.91 183.13 89.78 16.58 174.41-19.61 269.03-1.52l5.89 1.17c77.33 15.52 157.73 52.63 217.17 101.63 59.94 49.36 97.68 107.07 107.63 169.79 4.9 30.31 3.63 64.99-1.8 103.44l-6.6 40.89c-19.93 113.73-51.32 226.8-106.89 327.23-53.65 97.09-136.35 174.24-195.72 268.22-48.29-46.29-135.43-74.15-172.26-129.96-16.65-25.23-10.41-56.24-3.53-83.51 30.38-120.12 46.6-153.24 148.59-214.66 42.76-25.75 162.7-92.29 113.99-158.72-14.33-19.54-41.63-26.35-64.99-22.72-23.1 3.53-43.32 15.49-63.14 26.78-218.62 124.04-480.66 178.15-727.71 237-62.97 15.02-121.71 28.47-176.96 32.59-129.29 9.56-243.45-140.58-278.97-250.4 163.54-61.95 326.95-124.14 490.32-186.55 18.06-6.91 37.82-15.45 44.59-33.34 9.21-24.41-12.49-54.01-38.52-63.6-26.07-9.63-54.01-4.66-79.87 1.59-163.93 39.58-312.52 125.94-482.03 143.54-20.99 2.22-43.22 3.14-63.22-5.78-19.97-8.89-36.48-30.59-32.11-50.73 3.81-17.68 21.17-27.87 37.12-36.23 139.87-73.45 279.71-146.9 419.59-220.35 13.16-6.88 27.16-14.74 32.32-28.57 8.22-21.98-11.47-48.48-34.96-57.05-23.46-8.53-48.55-4.05-71.9 1.27-137.41 31.22-266.84 88.23-379.59 167.25-23 16.16-50.55 34.01-78.88 24.13-31.82-11.07-44.06-53.16-32.95-82.76 11.08-29.6 37.96-49.42 63.64-67.73 63.89-45.61 127.81-91.23 191.7-136.84 39.55-28.19 82.06-61.32 88.02-110.32-122.35-3.84-226.87 67.35-319.16 139.21-19.68 15.35-40.71 31.4-66.5 33.51-55.7 4.55-101.03-61.98-95.11-116.55 6-54.65 45.3-96.91 86.47-137.34z"/><path class="fil4" d="M11662.18 12521.21c-131.16-63.39-245.07-218.12-324.66-334.4-98.67-144.14-187.36-295.17-254.92-454.27-93.27-219.64-145.59-456.53-125.48-685.3 12.67-144.36 29.53-275.56 13.23-421.61-13.09-117.4-59.69-233.33 37.99-347.27 48.93-57.08 280.11-164.15 353.35-83.08 12.31 13.61 20.18 30.34 27.62 46.81 87.38 193.32 117.86 401.53 204.75 592.95 43.15 95.07 94.58 188.31 119.24 289.1 55.21 225.88-30.94 442.45-48.44 661.67-7.48 93.49 14.5 151.91 93.84 216.11 73.52 59.55 175.37 72.64 260.25 51.61 77.22-19.12 155.71-52.03 226.16-82.48 3.32-1.44 183.69 290.73 261.34 378.89 11.25 12.8-613.09 278.94-820.07 181.57-8-3.74-16.3-6.52-24.2-10.3zm698.71-708.38c-38.13-93.69-84.73-206.94-99.76-297.07-2.54-15.1 1.23-30.34 5.18-44.59 3.25-11.57 12.28-20.57 21.31-28.86 71.48-65.69 158.93-113.98 257.42-144.04-7.37 2.22 124.89 303.78 136.74 334.19 8.75 21.98 14.82 37.89 24.66 56.05 67.27 121.33 147.46 237.42 238.37 345.73 86.15 101.35 185.49 195.54 279.9 291.29 8.07 8.25 16.19 16.47 24.16 24.69-109.36 59.69-218.72 119.34-328.08 179.03-36.02 19.65-383.86-410.8-415.29-455.78-57.82-82.84-107.63-169.94-144.61-260.64zm493.08-607.9c165.49-137.97 328.16-270.97 516.15-351.19 151.62-64.91 328.05-93 486.45-60.79 36.61 7.34 72.14 17.64 106.89 31.29 74.33 29.21 142.31 75.68 204.29 131.52 4.45 12.21 8.5 24.45 12.88 36.69-9.42-1.48-18.84-3.28-28.08-4.2-89.75-8.22-359.98-37.57-385.66 74.54-26.92 116.91 225.74 74.62 298.31 79.03 212.9 12.62 433.49 87.63 508.56 287.93-67.24-31.43-133.88-63.18-207.04-77.47l-8.08-1.62c-89.96-16.4-231.74-26.32-314.5 2.4-92.64 32.03-98.14 152.26 22.61 174.27 89.89 16.44 174.45-17.39 269.21.49l5.89 1.17c77.43 15.34 158.04 51.15 217.7 98.21 60.15 47.34 98.1 102.48 108.26 162.21 5.05 28.86 3.88 61.81-1.44 98.35l-6.46 38.84c-19.51 107.99-50.55 215.27-105.8 310.38-53.41 91.93-135.89 164.68-194.94 253.61-48.54-44.34-135.86-71.47-172.9-124.78-16.72-24.13-10.58-53.58-3.77-79.44 29.95-114.06 46.11-145.38 147.95-203.06 42.69-24.2 162.49-86.61 113.49-150.11-14.36-18.66-41.73-25.36-65.09-22.05-23.1 3.18-43.28 14.4-63.11 24.98-218.33 116.38-480.41 165.95-727.43 220.13-62.97 13.83-121.67 26.21-176.98 29.71-130.21 7.3-237.21-144.18-300.78-233.54-76.87-108.16-174.35-220.81-233.12-336.16-76.83-150.96-162.45-296.2-23.46-411.34zm-223.87 1311.7c26.25 37.99 185.91 189.37 278.98 248.67 37.35-18.88 81.1-37.18 118.92-58.53 42.44-23.99 89.6-51.19 130.49-76.94 89.11-56.2 177.48-113.28 264.79-171.55 6.6-4.38 13.27-8.86 17.82-15 19.79-26.63-8.85-64.2-35.6-90.06 86.86-4.13 154.66.6 240.81-18.06 106.22-23.04 216.36-46.53 324.87-82.77 21.28-7.09 44 11.65 40.08 33.66-8.93 49.92-14.15 116.63-15.95 130.63-.91 7.02-1.72 14.29.57 21.38 2.33 6.92 7.34 13.02 12.31 18.91 102.41 121.64 227.29 174.59 366.57 252.98 6.77 3.77 14.18 7.72 21.7 7.19 6.81-.52 12.13-4.65 17-8.6 221.44-181.37 417.41-443.87 437.76-731.14l7.48-45.36c17.46-105.55 10.23-231.07-67.59-325.72-7.97-9.7-16.76-19.33-20.92-30.62-4.09-11.08-3.32-22.65-2.54-33.94.49-6.63.92-13.16 1.2-19.54 2.68-57.15-2.47-106.3-27.02-164.89-12.49-29.64-28.05-58.42-46.92-85.73-42.12-60.92-108.31-126.5-170.08-171.38-11.14-8.11-22.72-15.91-32.24-25.61-11.57-11.71-19.69-25.61-27.69-39.37-28.86-49.49-55.6-91.72-96.42-135.08-94.33-100.57-209.41-185.28-340.11-237.66-47.31-18.81-95.74-32.88-144.32-42.73-317.15-64.98-617.61 51.76-870.31 206.77-77.22 47.38-148.8 111.23-217.09 171.09-53.06 46.5-102.13 99.88-130.46 164.47-16.02-34.22-35.21-66.92-57.33-97.54-101.74 48.64-203.48 97.29-305.19 145.94-91.22 43.6-169.72 94.51-252.59 152.82 3.71 98.15 22.76 185.07 54.37 281.56 21.66 66.11 35.49 98.53 69.04 167-55.28 18.35-121.92 61.98-177.27 80.4-138.96 46.14-243.46-75.5-198.72-203.06 55.14-157.23 104.31-281.3 82.09-459.21-25.23-201.86-119.81-386.82-191.28-577.36-53.8-143.4-79.59-259.92-138.71-427.25-20.53-58.1-48.51-131.51-91.23-194.98-23.49-34.96-74.47-40.14-109.22-39.61-197.03 2.96-411.8 94.86-506.31 271.07-42.58 79.38-44.69 176.36-34.78 269.28 9.88 92.95 30.87 185.84 31.19 278.55.45 142.42-26.74 280.53-24.28 423.69 4.06 236.75 71.58 470.64 174.21 691.37 82.83 178.22 187.57 318.84 321.52 465.46 134.83 147.6 291.85 309.03 497.38 335.06 146.16 18.56 754.41-184.32 821.02-208.66z"/><path class="fil3" d="M12431.34 11787.36a2161.056 2161.056 0 01-41.13-100.43c-20.88-54.93-39.69-112.01-38.1-168.95 3.28-118.81 93.56-190.82 194.95-221.72 40.28 112.78 72.7 191.1 84.59 221.55 8.75 21.94 68.72 148.97 78.53 167.11 67.27 121.32 143.72 241.01 234.63 349.32 86.15 101.35 185.49 195.54 279.9 291.29 8.07 8.25 16.19 16.47 24.16 24.69-14.46-14.92-248.85 160.55-323 128.91-31.43-13.45-56.52-38.81-79.98-63.96-173.1-185.42-314.15-399.28-414.55-627.81z"/></g></svg>