<svg width="203" height="283" fill="none" xmlns="http://www.w3.org/2000/svg"><path d="M101.4 282.4c-20.267 0-39.467-3.2-57.6-9.6-17.867-6.667-32.267-15.467-43.2-26.4l14-22.8c9.067 9.333 21.2 17.067 36.4 23.2 15.467 6.133 32.267 9.2 50.4 9.2 23.2 0 40.933-5.067 53.2-15.2 12.533-10.133 18.8-23.733 18.8-40.8 0-17.067-6.133-30.667-18.4-40.8-12-10.133-31.067-15.2-57.2-15.2h-20v-21.2l86.4-108.4 4 11.2h-156V0h180v20.4l-86.4 108.4-14-9.2h10.8c33.6 0 58.667 7.467 75.2 22.4 16.8 14.933 25.2 34.133 25.2 57.6 0 15.733-3.733 29.867-11.2 42.4-7.467 12.533-18.8 22.4-34 29.6-14.933 7.2-33.733 10.8-56.4 10.8z" fill="#D6DAE4" fill-opacity=".2"/></svg>