<svg width="205" height="283" fill="none" xmlns="http://www.w3.org/2000/svg"><path d="M8.6 283v-20.4l116.4-114c10.667-10.4 18.667-19.467 24-27.2 5.333-8 8.933-15.467 10.8-22.4 1.867-6.933 2.8-13.467 2.8-19.6 0-16.267-5.6-29.067-16.8-38.4-10.933-9.333-27.2-14-48.8-14-16.533 0-31.2 2.533-44 7.6-12.533 5.067-23.333 12.933-32.4 23.6L.2 40.6c10.933-12.8 24.933-22.667 42-29.6S78.333.6 99.4.6c18.933 0 35.333 3.067 49.2 9.2 13.867 5.867 24.533 14.533 32 26 7.733 11.467 11.6 24.933 11.6 40.4 0 9.067-1.333 18-4 26.8-2.4 8.8-6.933 18.133-13.6 28-6.4 9.6-15.867 20.533-28.4 32.8L39.4 268.6l-8-11.2H205V283H8.6z" fill="#D6DAE4" fill-opacity=".2"/></svg>